PathFileType	4	(X/Y/Z)	D:\TRACE\v60_Jaco2_6-2-23\BothDRS_Motion3_6-v60.trc
DataRate	CameraRate	NumFrames	NumMarkers	Units	OrigDataRate	OrigDataStartFrame	OrigNumFrames
100.00	100.00	      31	9	mm	100.00	5251	      7000
Frame#	Time	front left toe			Front right toe			aft left toe			aft right toe			Arm			FL body			FR body			AL Body			AR Body			
		X1	Y1	Z1	X2	Y2	Z2	X3	Y3	Z3	X4	Y4	Z4	X5	Y5	Z5	X6	Y6	Z6	X7	Y7	Z7	X8	Y8	Z8	X9	Y9	Z9	

5251	52.500	-173.69916	28.22032	-227.00052	249.71240	3.57338	-236.48070	-121.86455	28.31320	389.53302	187.46555	41.39847	398.54419	76.52345	1092.77893	-605.01715	-40.64454	495.36539	-401.67554	118.28785	489.35327	-399.82166	-40.72662	583.41669	539.02448	110.66081	568.30725	540.65576	
5252	52.510	-175.01828	21.92444	-227.34280	249.82193	3.49850	-236.49870	-119.86123	28.09635	389.48709	185.67973	34.34747	398.64740	76.75829	1092.01575	-605.62946	-40.79075	494.85071	-401.73602	117.72817	488.85239	-400.04840	-42.44905	583.49591	538.74066	108.63866	568.33832	540.73572	
5253	52.520	-176.43190	15.75673	-227.89270	250.12321	3.47269	-236.47177	-119.66359	28.23968	389.16940	184.28006	30.82945	397.96622	77.10509	1091.20264	-606.46570	-41.74910	494.45779	-402.46649	117.26794	488.39011	-400.40314	-45.06517	583.80273	538.22131	106.42901	568.50464	540.54865	
5254	52.530	-177.81203	8.62669	-228.33307	250.45027	3.51898	-236.41597	-119.16141	28.30778	389.05759	185.61288	30.48251	397.39511	77.39216	1090.42249	-607.02698	-41.99649	493.70227	-402.69757	116.52168	487.73331	-400.41727	-47.30319	584.31683	537.60638	104.20116	569.04401	540.25592	
5255	52.540	-178.69083	5.12158	-229.51077	250.75327	3.08437	-236.69617	-118.66969	28.56038	389.05066	186.11072	30.92427	396.50952	77.83092	1089.68396	-607.96088	-42.70814	492.66928	-403.19574	115.32901	486.93735	-400.23987	-49.92455	585.65155	537.04761	101.41331	570.67993	540.09790	
5256	52.550	-179.40443	5.62650	-230.48706	251.07283	2.90423	-236.59134	-118.29448	28.98687	388.93951	186.36548	31.89706	397.34451	77.28009	1089.19592	-609.19818	-43.13132	492.27145	-403.63516	115.20029	486.40738	-399.60681	-52.56654	587.33887	536.46631	98.59608	572.26099	539.79340	
5257	52.560	-179.52074	3.79705	-230.50272	251.16675	3.69382	-236.63208	-118.33808	29.36331	388.71344	186.01297	33.37455	397.47934	77.01752	1088.48364	-611.03094	-43.59464	492.61554	-403.93665	114.64177	486.69165	-399.75995	-55.33575	588.78864	536.35132	96.80063	573.39954	539.84955	
5258	52.570	-179.61496	1.75106	-230.07448	249.15756	6.72343	-236.40536	-118.76428	32.29954	388.90634	185.01430	33.05473	397.90198	76.30626	1087.23145	-612.62421	-43.82500	493.61951	-403.82770	113.93098	487.57828	-399.70004	-57.56264	589.34827	536.03247	94.50437	574.10944	540.06274	
5259	52.580	-179.66699	1.90704	-230.64180	244.50496	10.10492	-232.95396	-117.63151	36.11762	391.19833	185.49420	32.93113	396.36896	75.57706	1085.99060	-613.62817	-44.10509	494.11401	-403.96414	113.42600	488.49435	-399.77481	-59.72622	589.55548	535.91882	92.35819	574.32068	539.90906	
5260	52.590	-179.51407	2.07098	-231.82936	240.55060	14.60795	-229.62712	-115.27348	44.81278	391.58740	185.86440	33.36756	396.75522	75.27482	1085.52002	-613.94208	-44.45995	494.29684	-404.42560	113.34505	488.43619	-399.57349	-62.06215	590.18182	535.49634	89.68453	574.94775	539.85687	
5261	52.600	-179.27423	1.25452	-231.15498	238.48351	24.67831	-228.75627	-113.68700	54.43587	392.37299	186.09727	33.69004	396.90021	75.32977	1085.96936	-613.73108	-45.09940	493.78778	-404.55981	112.92358	487.93658	-399.29953	-63.49057	590.94556	535.21545	88.44056	575.68823	539.92847	
5262	52.610	-178.94965	0.23385	-230.76651	237.87987	35.46830	-227.95558	-114.59335	66.48354	392.29053	186.31117	33.72385	396.73471	75.60310	1087.16882	-613.06763	-45.61377	492.69473	-404.40167	113.22841	487.10361	-399.38419	-65.09026	591.34387	535.24310	86.92294	576.77069	540.03986	
5263	52.620	-178.88161	0.00037	-231.07263	238.29138	48.30634	-227.46198	-117.17520	79.11052	391.86050	186.46822	33.80471	396.70197	75.27965	1088.10754	-612.04065	-45.96846	491.98474	-404.07843	112.52362	486.61340	-399.33725	-65.58068	591.65356	535.60950	86.27387	577.06409	540.17163	
5264	52.630	-178.73026	-0.13892	-231.15323	239.16440	60.70721	-227.06940	-122.23965	91.25214	391.38724	186.69464	33.92311	396.60458	74.41436	1088.44666	-611.15698	-46.63054	491.81274	-403.96701	112.01499	486.41156	-399.22040	-66.00758	591.57263	535.94434	85.85877	576.95593	540.53644	
5265	52.640	-178.28029	-0.44266	-231.21300	238.46541	73.22305	-226.41049	-129.28748	103.55027	391.27231	187.31830	34.21772	396.60577	73.12693	1088.18787	-610.46686	-47.05210	491.65189	-403.35263	111.56087	486.54642	-398.58020	-66.17614	591.12549	536.41437	85.61276	576.65912	540.71173	
5266	52.650	-177.84048	-0.58884	-231.21803	237.81371	85.82315	-225.00716	-134.84674	114.63902	391.04745	188.16319	34.36077	396.64807	71.43417	1087.67932	-610.34851	-46.99950	491.73676	-402.34637	111.59517	486.60410	-397.78738	-66.16003	590.54523	537.23145	85.30585	575.93689	541.57410	
5267	52.660	-177.31107	-0.64776	-231.22493	236.45996	97.35484	-224.17099	-139.78647	125.42269	391.11014	188.85370	34.46565	396.52997	69.84301	1086.94934	-610.14270	-47.47857	492.23859	-401.89676	111.42089	486.99237	-396.99438	-65.88956	589.94458	538.08942	85.77536	575.43268	542.41467	
5268	52.670	-176.96228	-0.62651	-231.15817	234.45393	107.69016	-223.54860	-142.60684	135.67281	391.32065	188.98038	34.51791	396.43143	68.54775	1086.36743	-609.77692	-47.64109	492.55841	-401.32401	111.44869	487.42899	-396.50949	-65.65234	589.68829	538.90955	85.98851	575.43762	543.03210	
5269	52.680	-176.51888	-0.78063	-231.10406	234.08025	117.71726	-222.06303	-145.02554	145.48840	391.92084	189.09218	34.58781	396.36353	67.40841	1086.17041	-608.91022	-47.60397	492.34723	-400.20908	111.32401	487.51559	-395.63840	-65.44075	589.67542	539.75214	86.62082	575.60345	543.99774	
5270	52.690	-175.84802	-1.31679	-231.16219	233.05820	125.77853	-221.06450	-146.28006	153.79822	393.17209	189.45712	34.81775	396.31693	66.96664	1086.33044	-608.08282	-47.74133	492.06265	-399.49338	110.98566	487.19128	-394.74387	-64.99389	589.97357	540.73541	86.99618	575.98090	544.81421	
5271	52.700	-175.64359	-1.74815	-230.93509	232.86278	129.62230	-218.70613	-147.86385	158.24232	394.79251	189.88510	34.97584	396.21271	65.80170	1087.13062	-606.76147	-48.02044	491.53729	-398.10068	110.86928	487.04547	-394.02032	-64.26337	590.25568	541.69141	88.28051	576.30286	545.73175	
5272	52.710	-175.54936	-1.59044	-230.75998	232.53880	130.52328	-215.82648	-149.48843	160.16837	397.61176	190.50993	35.20438	396.27194	65.45353	1087.65344	-605.52686	-48.00943	491.17413	-396.94092	110.62572	487.09610	-393.05356	-63.35546	590.67969	542.81219	88.31578	576.93652	546.52771	
5273	52.720	-175.24576	-1.54995	-230.60873	230.92169	128.14699	-212.58076	-151.59549	158.63171	400.42804	191.08243	35.24904	396.27530	65.43301	1087.85852	-604.69391	-48.37775	491.45804	-395.83685	110.30128	487.09387	-391.97525	-61.97913	590.74677	544.05402	90.21358	577.19800	547.54352	
5274	52.730	-174.97873	-1.51946	-230.53093	229.95967	124.57294	-209.29568	-153.97722	155.76085	403.62537	191.48709	35.12546	396.22382	64.27152	1088.02441	-603.37305	-48.04607	491.57532	-394.21658	110.42641	487.45840	-390.93185	-61.12812	590.86407	545.29041	90.37903	577.60382	548.41815	
5275	52.740	-173.89287	-1.95538	-230.70607	227.86308	118.66503	-206.54263	-156.23111	151.98344	406.43060	192.17841	35.30967	396.19498	63.49775	1087.93994	-602.34698	-48.74215	492.21921	-393.61359	110.58796	487.83356	-389.83823	-59.58985	591.00842	546.49524	92.71062	577.50946	549.54034	
5276	52.750	-173.71404	-1.64693	-230.50815	226.65604	111.83646	-204.70700	-157.86914	147.13297	409.37207	192.57562	35.40103	396.27310	62.76714	1087.79309	-601.51660	-48.24067	491.98538	-391.83655	110.65746	487.76196	-388.52896	-58.40723	591.04102	547.84216	93.66395	577.50238	550.90784	
5277	52.760	-173.37416	-1.73340	-230.40987	224.95293	104.10339	-202.68265	-159.15753	140.44557	412.46277	193.19984	35.49302	396.36063	62.62555	1087.41284	-600.43317	-48.03140	491.99890	-390.27307	110.62015	487.92130	-387.58551	-57.04304	590.89569	549.20013	94.85281	577.53900	551.64978	
5278	52.770	-173.01825	-1.84703	-230.26155	223.69904	95.55808	-200.90630	-159.38664	132.30788	415.26450	193.56105	35.56540	396.37283	61.84262	1087.61536	-599.32751	-47.94646	491.85794	-389.16782	110.72118	487.75250	-386.57025	-55.89172	591.13995	550.65930	95.17828	578.01337	552.90314	
5279	52.780	-172.77084	-1.86533	-230.17734	222.57620	86.10980	-199.35100	-160.12054	123.16818	418.92609	193.44084	34.52486	395.30136	61.78189	1087.47961	-598.02716	-48.12287	491.58664	-387.95377	110.70676	487.49060	-385.34412	-54.34374	591.22601	551.70770	97.16755	578.00171	554.16901	
5280	52.790	-172.42473	-1.99377	-230.00108	221.95009	75.76165	-197.17488	-160.26289	112.82441	421.41364	194.56038	35.77726	396.30704	61.80106	1087.49023	-596.97974	-47.69880	491.13992	-386.32050	109.95522	487.41342	-384.18851	-52.64329	591.20410	553.08838	98.21401	578.00525	554.82373	
5281	52.800	-172.11044	-2.14296	-230.02296	220.56169	65.13090	-194.57605	-161.33009	102.27518	424.78070	194.98799	35.62875	396.18948	62.15018	1087.08911	-595.75122	-47.88404	490.95584	-385.29138	110.22279	487.11453	-382.60410	-51.29340	591.08282	554.25922	100.15782	578.00940	556.06158	
